<svg width="19" height="31" viewBox="0 0 19 31" fill="none" xmlns="http://www.w3.org/2000/svg">
<path d="M0.25 4.625C0.25 3.39837 0.737276 2.22199 1.60463 1.35463C2.47199 0.487276 3.64837 0 4.875 0H14.125C15.3516 0 16.528 0.487276 17.3954 1.35463C18.2627 2.22199 18.75 3.39837 18.75 4.625V26.2083C18.75 27.435 18.2627 28.6113 17.3954 29.4787C16.528 30.3461 15.3516 30.8333 14.125 30.8333H4.875C3.64837 30.8333 2.47199 30.3461 1.60463 29.4787C0.737276 28.6113 0.25 27.435 0.25 26.2083V4.625ZM7.95833 21.5833C7.54946 21.5833 7.15733 21.7458 6.86821 22.0349C6.57909 22.324 6.41667 22.7161 6.41667 23.125C6.41667 23.5339 6.57909 23.926 6.86821 24.2151C7.15733 24.5042 7.54946 24.6667 7.95833 24.6667H11.0417C11.4505 24.6667 11.8427 24.5042 12.1318 24.2151C12.4209 23.926 12.5833 23.5339 12.5833 23.125C12.5833 22.7161 12.4209 22.324 12.1318 22.0349C11.8427 21.7458 11.4505 21.5833 11.0417 21.5833H7.95833Z" fill="#B9A289"/>
</svg>
