<svg width="60" height="60" viewBox="0 0 60 60" fill="none" xmlns="http://www.w3.org/2000/svg">
<circle cx="30" cy="30" r="30" fill="#C3A788"/>
<path d="M20.25 19.7085C20.25 18.4819 20.7373 17.3055 21.6046 16.4381C22.472 15.5708 23.6484 15.0835 24.875 15.0835H34.125C35.3516 15.0835 36.528 15.5708 37.3954 16.4381C38.2627 17.3055 38.75 18.4819 38.75 19.7085V41.2918C38.75 42.5185 38.2627 43.6948 37.3954 44.5622C36.528 45.4296 35.3516 45.9168 34.125 45.9168H24.875C23.6484 45.9168 22.472 45.4296 21.6046 44.5622C20.7373 43.6948 20.25 42.5185 20.25 41.2918V19.7085ZM27.9583 36.6668C27.5495 36.6668 27.1573 36.8293 26.8682 37.1184C26.5791 37.4075 26.4167 37.7996 26.4167 38.2085C26.4167 38.6174 26.5791 39.0095 26.8682 39.2986C27.1573 39.5877 27.5495 39.7502 27.9583 39.7502H31.0417C31.4505 39.7502 31.8427 39.5877 32.1318 39.2986C32.4209 39.0095 32.5833 38.6174 32.5833 38.2085C32.5833 37.7996 32.4209 37.4075 32.1318 37.1184C31.8427 36.8293 31.4505 36.6668 31.0417 36.6668H27.9583Z" fill="white"/>
</svg>
