<svg width="29" height="28" viewBox="0 0 29 28" fill="none" xmlns="http://www.w3.org/2000/svg">
<path d="M28.7973 11.9235C28.7973 5.34826 22.3374 0 14.3987 0C6.45991 0 0 5.34964 0 11.9235C0 17.8179 5.12264 22.7535 12.0422 23.6875C12.5114 23.7907 13.149 24.0025 13.3108 24.4124C13.4564 24.7839 13.4051 25.3657 13.3579 25.7413C13.3579 25.7413 13.1894 26.7784 13.153 26.9985C13.0897 27.3699 12.8632 28.4512 14.4 27.7909C15.9368 27.1306 22.6919 22.8085 25.7129 19.2609C27.7997 16.9252 28.8 14.5564 28.8 11.9249L28.7973 11.9235Z" fill="white"/>
<path d="M24.5128 16C24.6719 16 24.8 15.8708 24.8 15.7103V14.6339C24.8 14.4748 24.6705 14.3442 24.5128 14.3442H21.6418V13.2266H24.5128C24.6719 13.2266 24.8 13.0973 24.8 12.9369V11.8618C24.8 11.7028 24.6705 11.5721 24.5128 11.5721H21.6418V10.4545H24.5128C24.6719 10.4545 24.8 10.3253 24.8 10.1648V9.08975C24.8 8.9307 24.6705 8.80005 24.5128 8.80005H20.2872C20.1281 8.80005 20 8.92928 20 9.08975V9.09543V15.7047V15.7103C20 15.8708 20.1281 16 20.2872 16H24.5128Z" fill="#4CC764"/>
<path d="M8.56044 16C8.69303 16 8.7998 15.8708 8.7998 15.7103V14.6339C8.7998 14.4748 8.69186 14.3442 8.56044 14.3442H6.16795V9.08975C6.16795 8.9307 6.06 8.80005 5.92858 8.80005H5.03917C4.90658 8.80005 4.7998 8.92928 4.7998 9.08975V15.7047V15.7103C4.7998 15.8708 4.90658 16 5.03917 16H8.56044Z" fill="#4CC764"/>
<path d="M11.7197 8.80005H10.6801C10.5253 8.80005 10.3999 8.92978 10.3999 9.08981V15.7103C10.3999 15.8703 10.5253 16 10.6801 16H11.7197C11.8745 16 11.9999 15.8703 11.9999 15.7103V9.08981C11.9999 8.92978 11.8745 8.80005 11.7197 8.80005Z" fill="#4CC764"/>
<path d="M18.1418 8.80005H17.1832C17.0403 8.80005 16.9252 8.92918 16.9252 9.08952V13.0187L14.2276 8.93201C14.2213 8.92208 14.2137 8.91215 14.2074 8.90222L14.2061 8.9008C14.2011 8.89512 14.196 8.88803 14.191 8.88235L14.1859 8.87809C14.1808 8.87384 14.177 8.86958 14.172 8.86532C14.1695 8.8639 14.1669 8.86107 14.1644 8.85965C14.1606 8.85539 14.1555 8.85255 14.1505 8.84971C14.148 8.84829 14.1454 8.84546 14.1429 8.84404C14.1378 8.8412 14.134 8.83836 14.129 8.83552C14.1265 8.8341 14.1239 8.83269 14.1214 8.83127C14.1163 8.82843 14.1113 8.82559 14.1062 8.82417C14.1037 8.82417 14.1012 8.82133 14.0974 8.82133C14.0923 8.81992 14.0872 8.81708 14.0822 8.81566C14.0797 8.81566 14.0759 8.81424 14.0733 8.81282C14.0683 8.81282 14.0632 8.80998 14.0582 8.80856C14.0544 8.80856 14.0506 8.80856 14.0468 8.80714C14.0417 8.80714 14.0379 8.80572 14.0329 8.80572C14.0278 8.80572 14.024 8.80572 14.019 8.80572C14.0164 8.80572 14.0126 8.80572 14.0101 8.80572H13.0578C12.9149 8.80572 12.7998 8.93485 12.7998 9.0952V15.7106C12.7998 15.8709 12.9149 16 13.0578 16H14.0164C14.1593 16 14.2744 15.8709 14.2744 15.7106V11.7828L16.9745 15.8752C16.9935 15.905 17.0162 15.9291 17.0415 15.9475L17.0441 15.9504C17.0491 15.9546 17.0542 15.9575 17.0605 15.9617C17.063 15.9632 17.0656 15.9646 17.0681 15.966C17.0719 15.9688 17.077 15.9702 17.0807 15.9731C17.0845 15.9759 17.0896 15.9773 17.0934 15.9788C17.0959 15.9788 17.0985 15.9816 17.101 15.9816C17.1073 15.9844 17.1124 15.9859 17.1187 15.9873H17.1225C17.144 15.993 17.1667 15.9972 17.1895 15.9972H18.1418C18.2847 15.9972 18.3998 15.8681 18.3998 15.7077V9.09236C18.3998 8.93202 18.2847 8.80289 18.1418 8.80289V8.80005Z" fill="#4CC764"/>
</svg>
