<svg width="10" height="18" viewBox="0 0 10 18" fill="none" xmlns="http://www.w3.org/2000/svg">
<path d="M0 2.7C0 1.98392 0.263392 1.29716 0.732233 0.790812C1.20107 0.284464 1.83696 0 2.5 0H7.5C8.16304 0 8.79893 0.284464 9.26777 0.790812C9.73661 1.29716 10 1.98392 10 2.7V15.3C10 16.0161 9.73661 16.7028 9.26777 17.2092C8.79893 17.7155 8.16304 18 7.5 18H2.5C1.83696 18 1.20107 17.7155 0.732233 17.2092C0.263392 16.7028 0 16.0161 0 15.3V2.7ZM4.16667 12.6C3.94565 12.6 3.73369 12.6948 3.57741 12.8636C3.42113 13.0324 3.33333 13.2613 3.33333 13.5C3.33333 13.7387 3.42113 13.9676 3.57741 14.1364C3.73369 14.3052 3.94565 14.4 4.16667 14.4H5.83333C6.05435 14.4 6.26631 14.3052 6.42259 14.1364C6.57887 13.9676 6.66667 13.7387 6.66667 13.5C6.66667 13.2613 6.57887 13.0324 6.42259 12.8636C6.26631 12.6948 6.05435 12.6 5.83333 12.6H4.16667Z" fill="white"/>
</svg>
