<svg width="60" height="60" viewBox="0 0 60 60" fill="none" xmlns="http://www.w3.org/2000/svg">
<g clip-path="url(#clip0_5_640)">
<path d="M30 60C46.5685 60 60 46.5685 60 30C60 13.4315 46.5685 0 30 0C13.4315 0 0 13.4315 0 30C0 46.5685 13.4315 60 30 60Z" fill="#4CC764"/>
<path d="M47.9966 29.9044C47.9966 21.6853 39.9217 15 29.9983 15C20.0749 15 12 21.687 12 29.9044C12 37.2724 18.4033 43.4419 27.0528 44.6094C27.6392 44.7384 28.4362 45.0032 28.6385 45.5156C28.8204 45.9798 28.7564 46.7072 28.6974 47.1766C28.6974 47.1766 28.4868 48.4731 28.4413 48.7482C28.3621 49.2124 28.079 50.5639 30 49.7386C31.921 48.9132 40.3649 43.5107 44.1412 39.0761C46.7497 36.1564 48 33.1955 48 29.9061L47.9966 29.9044Z" fill="white"/>
<path d="M42.6409 35C42.8398 35 43 34.8385 43 34.6379V33.2923C43 33.0935 42.8381 32.9302 42.6409 32.9302H39.0522V31.5331H42.6409C42.8398 31.5331 43 31.3716 43 31.171V29.8272C43 29.6284 42.8381 29.4651 42.6409 29.4651H39.0522V28.068H42.6409C42.8398 28.068 43 27.9065 43 27.7059V26.3621C43 26.1633 42.8381 26 42.6409 26H37.3591C37.1602 26 37 26.1615 37 26.3621V26.3692V34.6308V34.6379C37 34.8385 37.1602 35 37.3591 35H42.6409Z" fill="#4CC764"/>
<path d="M22.7008 35C22.8665 35 23 34.8385 23 34.6379V33.2923C23 33.0935 22.8651 32.9302 22.7008 32.9302H19.7102V26.3621C19.7102 26.1633 19.5752 26 19.411 26H18.2992C18.1335 26 18 26.1615 18 26.3621V34.6308V34.6379C18 34.8385 18.1335 35 18.2992 35H22.7008Z" fill="#4CC764"/>
<path d="M26.6498 26H25.3502C25.1568 26 25 26.1622 25 26.3622V34.6378C25 34.8378 25.1568 35 25.3502 35H26.6498C26.8432 35 27 34.8378 27 34.6378V26.3622C27 26.1622 26.8432 26 26.6498 26Z" fill="#4CC764"/>
<path d="M34.6775 26H33.4792C33.3006 26 33.1567 26.1614 33.1567 26.3618V31.2734L29.7848 26.165C29.7769 26.1525 29.7674 26.1401 29.7595 26.1277C29.7595 26.1277 29.7595 26.1277 29.7579 26.1259C29.7516 26.1188 29.7453 26.11 29.7389 26.1029C29.7374 26.1011 29.7342 26.0993 29.7326 26.0976C29.7263 26.0922 29.7215 26.0869 29.7152 26.0816C29.7121 26.0798 29.7089 26.0763 29.7057 26.0745C29.701 26.0692 29.6947 26.0656 29.6883 26.0621C29.6852 26.0603 29.682 26.0568 29.6789 26.055C29.6725 26.0514 29.6678 26.0479 29.6615 26.0443C29.6583 26.0426 29.6551 26.0408 29.652 26.039C29.6457 26.0355 29.6393 26.0319 29.633 26.0302C29.6299 26.0302 29.6267 26.0266 29.622 26.0266C29.6156 26.0248 29.6093 26.0213 29.603 26.0195C29.5998 26.0195 29.5951 26.0177 29.5919 26.016C29.5856 26.016 29.5793 26.0124 29.5729 26.0106C29.5682 26.0106 29.5635 26.0106 29.5587 26.0089C29.5524 26.0089 29.5477 26.0071 29.5413 26.0071C29.535 26.0071 29.5303 26.0071 29.5239 26.0071C29.5208 26.0071 29.516 26.0071 29.5129 26.0071H28.3225C28.1439 26.0071 28 26.1685 28 26.3689V34.6382C28 34.8386 28.1439 35 28.3225 35H29.5208C29.6994 35 29.8433 34.8386 29.8433 34.6382V29.7284L33.2184 34.8439C33.2421 34.8812 33.2706 34.9113 33.3022 34.9344C33.3022 34.9344 33.3053 34.9361 33.3053 34.9379C33.3117 34.9432 33.318 34.9468 33.3259 34.9521C33.329 34.9539 33.3322 34.9557 33.3354 34.9574C33.3401 34.961 33.3464 34.9628 33.3512 34.9663C33.3559 34.9698 33.3622 34.9716 33.367 34.9734C33.3701 34.9734 33.3733 34.9769 33.3765 34.9769C33.3844 34.9805 33.3907 34.9823 33.3986 34.984C33.3986 34.984 33.4018 34.984 33.4033 34.984C33.4302 34.9911 33.4587 34.9965 33.4871 34.9965H34.6775C34.8561 34.9965 35 34.835 35 34.6346V26.3654C35 26.165 34.8561 26.0035 34.6775 26.0035V26Z" fill="#4CC764"/>
</g>
<defs>
<clipPath id="clip0_5_640">
<rect width="60" height="60" fill="white"/>
</clipPath>
</defs>
</svg>
