<svg width="26" height="20" viewBox="0 0 26 20" fill="none" xmlns="http://www.w3.org/2000/svg">
<path fill-rule="evenodd" clip-rule="evenodd" d="M3.66666 0.958374C2.81576 0.958374 1.99971 1.29639 1.39803 1.89807C0.796348 2.49975 0.458328 3.3158 0.458328 4.16671V15.8334C0.458328 16.6843 0.796348 17.5003 1.39803 18.102C1.99971 18.7037 2.81576 19.0417 3.66666 19.0417H22.3333C23.1842 19.0417 24.0003 18.7037 24.602 18.102C25.2036 17.5003 25.5417 16.6843 25.5417 15.8334V4.16671C25.5417 3.3158 25.2036 2.49975 24.602 1.89807C24.0003 1.29639 23.1842 0.958374 22.3333 0.958374H3.66666ZM7.66833 5.78371C7.47814 5.6596 7.24715 5.6143 7.02417 5.65737C6.8012 5.70045 6.6037 5.82853 6.47343 6.01455C6.34316 6.20057 6.29031 6.42995 6.32606 6.65422C6.3618 6.87849 6.48335 7.08007 6.665 7.21637L12.4983 11.2997C12.6454 11.4026 12.8205 11.4578 13 11.4578C13.1795 11.4578 13.3546 11.4026 13.5017 11.2997L19.335 7.21637C19.4332 7.15226 19.5176 7.06904 19.583 6.97167C19.6485 6.8743 19.6937 6.76476 19.7159 6.64957C19.7382 6.53438 19.737 6.41589 19.7126 6.30115C19.6881 6.1864 19.6408 6.07775 19.5735 5.98166C19.5062 5.88556 19.4203 5.80398 19.3208 5.74176C19.2214 5.67955 19.1104 5.63797 18.9945 5.6195C18.8787 5.60103 18.7603 5.60605 18.6464 5.63426C18.5325 5.66247 18.4255 5.71329 18.3317 5.78371L13 9.51587L7.66833 5.78371Z" fill="white"/>
</svg>
