<svg width="60" height="60" viewBox="0 0 60 60" fill="none" xmlns="http://www.w3.org/2000/svg">
<circle cx="30" cy="30" r="30" fill="#C3A788"/>
<path fill-rule="evenodd" clip-rule="evenodd" d="M18 19.375C16.906 19.375 15.8568 19.8096 15.0832 20.5832C14.3096 21.3568 13.875 22.406 13.875 23.5V38.5C13.875 39.594 14.3096 40.6432 15.0832 41.4168C15.8568 42.1904 16.906 42.625 18 42.625H42C43.094 42.625 44.1432 42.1904 44.9168 41.4168C45.6904 40.6432 46.125 39.594 46.125 38.5V23.5C46.125 22.406 45.6904 21.3568 44.9168 20.5832C44.1432 19.8096 43.094 19.375 42 19.375H18ZM23.145 25.579C22.9005 25.4194 22.6035 25.3612 22.3168 25.4166C22.0301 25.472 21.7762 25.6366 21.6087 25.8758C21.4412 26.115 21.3733 26.4099 21.4192 26.6982C21.4652 26.9866 21.6215 27.2458 21.855 27.421L29.355 32.671C29.5441 32.8033 29.7692 32.8743 30 32.8743C30.2308 32.8743 30.4559 32.8033 30.645 32.671L38.145 27.421C38.2713 27.3386 38.3798 27.2316 38.4639 27.1064C38.5481 26.9812 38.6062 26.8403 38.6348 26.6922C38.6634 26.5441 38.6619 26.3918 38.6305 26.2443C38.599 26.0968 38.5382 25.9571 38.4517 25.8335C38.3652 25.71 38.2547 25.6051 38.1268 25.5251C37.9989 25.4451 37.8562 25.3916 37.7073 25.3679C37.5583 25.3441 37.4061 25.3506 37.2597 25.3869C37.1133 25.4231 36.9757 25.4885 36.855 25.579L30 30.3775L23.145 25.579Z" fill="white"/>
</svg>
