<svg width="118" height="27" viewBox="0 0 118 27" fill="none" xmlns="http://www.w3.org/2000/svg">
<path d="M109.09 26.2881C106.402 26.2881 104.482 25.9401 103.33 25.2441C102.178 24.5241 101.446 23.3481 101.134 21.7161C100.822 20.0841 100.666 17.3841 100.666 13.6161C100.666 9.84809 100.822 7.14809 101.134 5.51609C101.446 3.88409 102.178 2.72009 103.33 2.02409C104.482 1.30409 106.402 0.944092 109.09 0.944092C111.802 0.944092 113.734 1.30409 114.886 2.02409C116.038 2.72009 116.758 3.88409 117.046 5.51609C117.358 7.12409 117.514 9.82409 117.514 13.6161C117.514 17.4081 117.358 20.1201 117.046 21.7521C116.758 23.3601 116.038 24.5241 114.886 25.2441C113.734 25.9401 111.802 26.2881 109.09 26.2881ZM109.09 22.3281C110.458 22.3281 111.37 22.1841 111.826 21.8961C112.306 21.6081 112.606 20.9361 112.726 19.8801C112.87 18.8001 112.942 16.7121 112.942 13.6161C112.942 10.5201 112.87 8.44409 112.726 7.38809C112.606 6.30809 112.306 5.62409 111.826 5.33609C111.37 5.04809 110.458 4.90409 109.09 4.90409C107.746 4.90409 106.834 5.04809 106.354 5.33609C105.874 5.62409 105.562 6.30809 105.418 7.38809C105.298 8.46809 105.238 10.5441 105.238 13.6161C105.238 16.6881 105.298 18.7641 105.418 19.8441C105.562 20.9241 105.874 21.6081 106.354 21.8961C106.834 22.1841 107.746 22.3281 109.09 22.3281Z" fill="#AF9272"/>
<path d="M91.4246 26.0002V6.45218L87.1406 8.28818V4.18418L92.7566 1.23218H96.0326V26.0002H91.4246Z" fill="#AF9272"/>
<path d="M62.4316 26.0002V1.23218H76.9036V5.19218H67.0036V11.4922H75.5356V15.4882H67.0036V22.0402H76.9036V26.0002H62.4316Z" fill="#222222"/>
<path d="M50.439 26.2881C49.191 26.2881 47.859 26.2281 46.443 26.1081C45.027 26.0121 43.779 25.8801 42.699 25.7121V21.9321C45.387 22.1961 47.523 22.3281 49.107 22.3281C50.187 22.3281 51.027 22.2681 51.627 22.1481C52.227 22.0281 52.671 21.8361 52.959 21.5721C53.247 21.3321 53.427 21.0201 53.499 20.6361C53.571 20.2521 53.607 19.7001 53.607 18.9801C53.607 18.0921 53.547 17.4561 53.427 17.0721C53.331 16.6881 53.127 16.4121 52.815 16.2441C52.503 16.0521 51.975 15.8961 51.231 15.7761L46.659 15.1281C44.931 14.9121 43.743 14.2521 43.095 13.1481C42.447 12.0201 42.123 10.4001 42.123 8.28809C42.123 6.27209 42.447 4.73609 43.095 3.68009C43.767 2.60009 44.679 1.88009 45.831 1.52009C47.007 1.13609 48.495 0.944092 50.295 0.944092C51.519 0.944092 52.755 1.01609 54.003 1.16009C55.251 1.28009 56.295 1.43609 57.135 1.62809V5.33609C55.407 5.04809 53.499 4.90409 51.411 4.90409C50.355 4.90409 49.515 4.95209 48.891 5.04809C48.291 5.14409 47.835 5.30009 47.523 5.51609C47.187 5.73209 46.971 6.03209 46.875 6.41609C46.779 6.77609 46.731 7.32809 46.731 8.07209C46.731 8.88809 46.779 9.47609 46.875 9.83609C46.971 10.1961 47.163 10.4481 47.451 10.5921C47.739 10.7361 48.231 10.8561 48.927 10.9521L53.535 11.5641C54.543 11.7081 55.371 11.9841 56.019 12.3921C56.691 12.7761 57.2191 13.4121 57.6031 14.3001C58.0111 15.3081 58.215 16.7241 58.215 18.5481C58.215 20.7321 57.903 22.3881 57.279 23.5161C56.679 24.6441 55.827 25.3881 54.723 25.7481C53.643 26.1081 52.215 26.2881 50.439 26.2881Z" fill="#222222"/>
<path d="M35.3288 26.0002L33.8168 20.4562H25.7168L24.2408 26.0002H19.6328L26.6528 1.23218H33.0248L40.0448 26.0002H35.3288ZM29.8568 5.58818H29.6768L26.7608 16.4962H32.7368L29.8568 5.58818Z" fill="#222222"/>
<path d="M0.591797 1.23218H10.7798C12.9638 1.23218 14.5718 1.76018 15.6038 2.81618C16.6358 3.84818 17.1518 5.39618 17.1518 7.46018C17.1518 9.18818 16.8398 10.5202 16.2158 11.4562C15.6158 12.3682 14.6558 12.9802 13.3358 13.2922V13.4362C14.8238 13.7482 15.8678 14.3722 16.4678 15.3082C17.0918 16.2202 17.4038 17.5882 17.4038 19.4122C17.4038 21.5482 16.8998 23.1802 15.8918 24.3082C14.8838 25.4362 13.1798 26.0002 10.7798 26.0002H0.591797V1.23218ZM9.3038 11.4922C10.5278 11.4922 11.3678 11.2762 11.8238 10.8442C12.3038 10.3882 12.5438 9.56018 12.5438 8.36018C12.5438 7.47218 12.4598 6.81218 12.2918 6.38018C12.1238 5.94818 11.8118 5.64818 11.3558 5.48018C10.8998 5.28818 10.2158 5.19218 9.3038 5.19218H5.1638V11.4922H9.3038ZM9.4838 22.0402C10.3958 22.0402 11.0798 21.9562 11.5358 21.7882C11.9918 21.5962 12.3038 21.2722 12.4718 20.8162C12.6638 20.3602 12.7598 19.6882 12.7598 18.8002C12.7598 17.8882 12.6638 17.2042 12.4718 16.7482C12.2798 16.2682 11.9558 15.9322 11.4998 15.7402C11.0438 15.5482 10.3718 15.4522 9.4838 15.4522H5.1638V22.0402H9.4838Z" fill="#222222"/>
</svg>
