<svg width="118" height="27" viewBox="0 0 118 27" fill="none" xmlns="http://www.w3.org/2000/svg">
<path d="M109.09 26.2878C106.402 26.2878 104.482 25.9398 103.33 25.2438C102.178 24.5238 101.446 23.3478 101.134 21.7158C100.822 20.0838 100.666 17.3838 100.666 13.6158C100.666 9.84785 100.822 7.14785 101.134 5.51585C101.446 3.88385 102.178 2.71985 103.33 2.02385C104.482 1.30385 106.402 0.943848 109.09 0.943848C111.802 0.943848 113.734 1.30385 114.886 2.02385C116.038 2.71985 116.758 3.88385 117.046 5.51585C117.358 7.12385 117.514 9.82385 117.514 13.6158C117.514 17.4078 117.358 20.1198 117.046 21.7518C116.758 23.3598 116.038 24.5238 114.886 25.2438C113.734 25.9398 111.802 26.2878 109.09 26.2878ZM109.09 22.3278C110.458 22.3278 111.37 22.1838 111.826 21.8958C112.306 21.6078 112.606 20.9358 112.726 19.8798C112.87 18.7998 112.942 16.7118 112.942 13.6158C112.942 10.5198 112.87 8.44385 112.726 7.38785C112.606 6.30785 112.306 5.62385 111.826 5.33585C111.37 5.04785 110.458 4.90385 109.09 4.90385C107.746 4.90385 106.834 5.04785 106.354 5.33585C105.874 5.62385 105.562 6.30785 105.418 7.38785C105.298 8.46785 105.238 10.5438 105.238 13.6158C105.238 16.6878 105.298 18.7638 105.418 19.8438C105.562 20.9238 105.874 21.6078 106.354 21.8958C106.834 22.1838 107.746 22.3278 109.09 22.3278Z" fill="#B69E82"/>
<path d="M91.4246 25.9999V6.45193L87.1406 8.28793V4.18393L92.7566 1.23193H96.0326V25.9999H91.4246Z" fill="#B69E82"/>
<path d="M62.4319 25.9999V1.23193H76.9039V5.19193H67.0039V11.4919H75.5359V15.4879H67.0039V22.0399H76.9039V25.9999H62.4319Z" fill="white"/>
<path d="M50.439 26.2878C49.191 26.2878 47.859 26.2278 46.443 26.1078C45.027 26.0118 43.779 25.8798 42.699 25.7118V21.9318C45.387 22.1958 47.523 22.3278 49.107 22.3278C50.187 22.3278 51.027 22.2678 51.627 22.1478C52.227 22.0278 52.671 21.8358 52.959 21.5718C53.247 21.3318 53.427 21.0198 53.499 20.6358C53.571 20.2518 53.607 19.6998 53.607 18.9798C53.607 18.0918 53.547 17.4558 53.427 17.0718C53.331 16.6879 53.127 16.4118 52.815 16.2438C52.503 16.0518 51.975 15.8958 51.231 15.7758L46.659 15.1278C44.931 14.9118 43.743 14.2518 43.095 13.1478C42.447 12.0198 42.123 10.3998 42.123 8.28785C42.123 6.27185 42.447 4.73585 43.095 3.67985C43.767 2.59985 44.679 1.87985 45.831 1.51985C47.007 1.13585 48.495 0.943848 50.295 0.943848C51.519 0.943848 52.755 1.01585 54.003 1.15985C55.251 1.27985 56.295 1.43585 57.135 1.62785V5.33585C55.407 5.04785 53.499 4.90385 51.411 4.90385C50.355 4.90385 49.515 4.95185 48.891 5.04785C48.291 5.14385 47.835 5.29985 47.523 5.51585C47.187 5.73185 46.971 6.03185 46.875 6.41585C46.779 6.77585 46.731 7.32785 46.731 8.07185C46.731 8.88785 46.779 9.47585 46.875 9.83585C46.971 10.1958 47.163 10.4478 47.451 10.5918C47.739 10.7358 48.231 10.8558 48.927 10.9518L53.535 11.5638C54.543 11.7078 55.371 11.9838 56.019 12.3918C56.691 12.7758 57.2191 13.4118 57.6031 14.2998C58.011 15.3078 58.215 16.7238 58.215 18.5478C58.215 20.7318 57.903 22.3878 57.279 23.5158C56.679 24.6438 55.827 25.3878 54.723 25.7478C53.643 26.1078 52.215 26.2878 50.439 26.2878Z" fill="white"/>
<path d="M35.3291 25.9999L33.8171 20.4559H25.7171L24.2411 25.9999H19.6331L26.6531 1.23193H33.0251L40.0451 25.9999H35.3291ZM29.8571 5.58793H29.6771L26.7611 16.4959H32.7371L29.8571 5.58793Z" fill="white"/>
<path d="M0.592041 1.23193H10.78C12.964 1.23193 14.572 1.75993 15.604 2.81593C16.636 3.84793 17.152 5.39593 17.152 7.45993C17.152 9.18793 16.84 10.5199 16.216 11.4559C15.616 12.3679 14.656 12.9799 13.336 13.2919V13.4359C14.824 13.7479 15.868 14.3719 16.468 15.3079C17.092 16.2199 17.404 17.5879 17.404 19.4119C17.404 21.5479 16.9 23.1799 15.892 24.3079C14.884 25.4359 13.18 25.9999 10.78 25.9999H0.592041V1.23193ZM9.30404 11.4919C10.528 11.4919 11.368 11.2759 11.824 10.8439C12.304 10.3879 12.544 9.55993 12.544 8.35993C12.544 7.47193 12.46 6.81193 12.292 6.37993C12.124 5.94793 11.812 5.64793 11.356 5.47993C10.9 5.28793 10.216 5.19193 9.30404 5.19193H5.16404V11.4919H9.30404ZM9.48404 22.0399C10.396 22.0399 11.08 21.9559 11.536 21.7879C11.992 21.5959 12.304 21.2719 12.472 20.8159C12.664 20.3599 12.76 19.6879 12.76 18.7999C12.76 17.8879 12.664 17.2039 12.472 16.7479C12.28 16.2679 11.956 15.9319 11.5 15.7399C11.044 15.5479 10.372 15.4519 9.48404 15.4519H5.16404V22.0399H9.48404Z" fill="white"/>
</svg>
